<?xml version="1.0" encoding="UTF-8"?>
<svg xmlns="http://www.w3.org/2000/svg" xmlns:xlink="http://www.w3.org/1999/xlink" width="30pt" height="30.000001pt" viewBox="0 0 30 30.000001" version="1.2">
<defs>
<clipPath id="clip1">
  <path d="M 1.539062 1.054688 L 28.324219 1.054688 L 28.324219 27.839844 L 1.539062 27.839844 Z M 1.539062 1.054688 "/>
</clipPath>
</defs>
<g id="surface1">
<g clip-path="url(#clip1)" clip-rule="nonzero">
<path style=" stroke:none;fill-rule:nonzero;fill:rgb(11.369324%,60.778809%,94.119263%);fill-opacity:1;" d="M 24.976562 27.839844 L 4.886719 27.839844 C 3.039062 27.839844 1.539062 26.339844 1.539062 24.492188 L 1.539062 4.402344 C 1.539062 2.554688 3.039062 1.054688 4.886719 1.054688 L 24.976562 1.054688 C 26.824219 1.054688 28.324219 2.554688 28.324219 4.402344 L 28.324219 24.492188 C 28.324219 26.339844 26.824219 27.839844 24.976562 27.839844 Z M 24.976562 27.839844 "/>
</g>
<path style=" stroke:none;fill-rule:nonzero;fill:rgb(100%,100%,100%);fill-opacity:1;" d="M 11.824219 21.25 C 18.136719 21.25 21.59375 16.015625 21.59375 11.480469 C 21.59375 11.332031 21.59375 11.1875 21.585938 11.039062 C 22.257812 10.554688 22.839844 9.945312 23.300781 9.257812 C 22.6875 9.53125 22.023438 9.710938 21.328125 9.800781 C 22.035156 9.378906 22.578125 8.703125 22.839844 7.898438 C 22.175781 8.292969 21.441406 8.574219 20.65625 8.726562 C 20.027344 8.058594 19.136719 7.644531 18.152344 7.644531 C 16.257812 7.644531 14.714844 9.183594 14.714844 11.078125 C 14.714844 11.347656 14.75 11.609375 14.804688 11.863281 C 11.949219 11.722656 9.417969 10.347656 7.726562 8.273438 C 7.429688 8.78125 7.261719 9.371094 7.261719 10 C 7.261719 11.191406 7.871094 12.242188 8.789062 12.859375 C 8.226562 12.839844 7.699219 12.6875 7.238281 12.429688 C 7.238281 12.445312 7.238281 12.457031 7.238281 12.476562 C 7.238281 14.140625 8.421875 15.53125 9.988281 15.847656 C 9.699219 15.925781 9.398438 15.96875 9.085938 15.96875 C 8.863281 15.96875 8.648438 15.945312 8.441406 15.90625 C 8.878906 17.273438 10.148438 18.265625 11.648438 18.289062 C 10.472656 19.214844 8.992188 19.765625 7.382812 19.765625 C 7.109375 19.765625 6.835938 19.75 6.566406 19.71875 C 8.082031 20.683594 9.886719 21.25 11.824219 21.25 "/>
</g>
</svg>
