<?xml version="1.0" encoding="UTF-8"?>
<svg xmlns="http://www.w3.org/2000/svg" xmlns:xlink="http://www.w3.org/1999/xlink" width="30pt" height="30.000001pt" viewBox="0 0 30 30.000001" version="1.2">
<defs>
<clipPath id="clip1">
  <path d="M 1.933594 1.453125 L 28.066406 1.453125 L 28.066406 27.582031 L 1.933594 27.582031 Z M 1.933594 1.453125 "/>
</clipPath>
</defs>
<g id="surface1">
<g clip-path="url(#clip1)" clip-rule="nonzero">
<path style=" stroke:none;fill-rule:nonzero;fill:rgb(14.509583%,82.749939%,39.99939%);fill-opacity:1;" d="M 24.582031 27.570312 L 5.398438 27.570312 C 3.484375 27.570312 1.933594 26.023438 1.933594 24.109375 L 1.933594 4.925781 C 1.933594 3.007812 3.484375 1.460938 5.398438 1.460938 L 24.601562 1.460938 C 26.515625 1.460938 28.066406 3.007812 28.066406 4.925781 L 28.066406 24.125 C 28.046875 26.023438 26.496094 27.570312 24.582031 27.570312 Z M 24.582031 27.570312 "/>
</g>
<path style=" stroke:none;fill-rule:evenodd;fill:rgb(100%,100%,100%);fill-opacity:1;" d="M 21.257812 7.902344 C 19.621094 6.265625 17.445312 5.359375 15.128906 5.359375 C 10.34375 5.359375 6.460938 9.242188 6.460938 14.027344 C 6.460938 15.5625 6.863281 17.058594 7.628906 18.363281 L 6.390625 22.855469 L 10.988281 21.652344 C 12.257812 22.351562 13.6875 22.714844 15.128906 22.714844 C 19.917969 22.714844 23.800781 18.816406 23.800781 14.046875 C 23.78125 11.714844 22.894531 9.539062 21.257812 7.902344 Z M 15.113281 21.253906 C 13.824219 21.253906 12.554688 20.90625 11.441406 20.242188 L 11.179688 20.085938 L 8.445312 20.800781 L 9.175781 18.136719 L 9.003906 17.859375 C 8.289062 16.710938 7.90625 15.386719 7.90625 14.027344 C 7.90625 10.058594 11.144531 6.820312 15.113281 6.820312 C 17.046875 6.820312 18.855469 7.570312 20.214844 8.929688 C 21.570312 10.285156 22.320312 12.097656 22.320312 14.027344 C 22.320312 18.015625 19.082031 21.253906 15.113281 21.253906 Z M 19.066406 15.839844 C 18.855469 15.734375 17.777344 15.210938 17.585938 15.125 C 17.394531 15.054688 17.238281 15.019531 17.097656 15.230469 C 16.957031 15.4375 16.539062 15.945312 16.417969 16.082031 C 16.296875 16.222656 16.15625 16.238281 15.949219 16.136719 C 15.738281 16.03125 15.027344 15.804688 14.207031 15.054688 C 13.5625 14.480469 13.128906 13.769531 13.007812 13.558594 C 12.886719 13.351562 12.988281 13.226562 13.09375 13.125 C 13.199219 13.019531 13.304688 12.863281 13.425781 12.742188 C 13.527344 12.617188 13.5625 12.53125 13.632812 12.375 C 13.703125 12.234375 13.667969 12.097656 13.617188 11.992188 C 13.5625 11.886719 13.128906 10.808594 12.953125 10.390625 C 12.78125 9.972656 12.605469 10.023438 12.46875 10.023438 C 12.34375 10.023438 12.1875 10.023438 12.050781 10.023438 C 11.910156 10.023438 11.667969 10.078125 11.476562 10.304688 C 11.285156 10.511719 10.710938 11.050781 10.710938 12.113281 C 10.710938 13.175781 11.492188 14.203125 11.597656 14.359375 C 11.703125 14.5 13.128906 16.691406 15.304688 17.632812 C 15.828125 17.859375 16.226562 17.980469 16.539062 18.085938 C 17.0625 18.242188 17.53125 18.222656 17.898438 18.171875 C 18.316406 18.101562 19.1875 17.648438 19.359375 17.144531 C 19.535156 16.640625 19.535156 16.203125 19.484375 16.117188 C 19.429688 16.011719 19.289062 15.960938 19.066406 15.839844 Z M 19.066406 15.839844 "/>
</g>
</svg>
